<svg xmlns="http://www.w3.org/2000/svg" version="1.1" xmlns:xlink="http://www.w3.org/1999/xlink" xmlns:svgjs="http://svgjs.dev/svgjs" width="900" height="300" preserveAspectRatio="none" viewBox="0 0 900 300"><g mask="url(&quot;#SvgjsMask1210&quot;)" fill="none"><rect width="900" height="300" x="0" y="0" fill="rgba(76, 168, 243, 1)"></rect><path d="M4 230L-115 349" stroke-width="10" stroke="url(&quot;#SvgjsLinearGradient1211&quot;)" stroke-linecap="round" class="BottomLeft"></path><path d="M416 11L547 -120" stroke-width="6" stroke="url(&quot;#SvgjsLinearGradient1212&quot;)" stroke-linecap="round" class="TopRight"></path><path d="M232 176L414 -6" stroke-width="10" stroke="url(&quot;#SvgjsLinearGradient1211&quot;)" stroke-linecap="round" class="BottomLeft"></path><path d="M432 109L637 -96" stroke-width="6" stroke="url(&quot;#SvgjsLinearGradient1212&quot;)" stroke-linecap="round" class="TopRight"></path><path d="M879 252L1015 116" stroke-width="8" stroke="url(&quot;#SvgjsLinearGradient1211&quot;)" stroke-linecap="round" class="BottomLeft"></path><path d="M133 56L246 -57" stroke-width="6" stroke="url(&quot;#SvgjsLinearGradient1211&quot;)" stroke-linecap="round" class="BottomLeft"></path><path d="M591 241L502 330" stroke-width="10" stroke="url(&quot;#SvgjsLinearGradient1212&quot;)" stroke-linecap="round" class="TopRight"></path><path d="M210 270L14 466" stroke-width="8" stroke="url(&quot;#SvgjsLinearGradient1212&quot;)" stroke-linecap="round" class="TopRight"></path><path d="M494 253L404 343" stroke-width="8" stroke="url(&quot;#SvgjsLinearGradient1211&quot;)" stroke-linecap="round" class="BottomLeft"></path><path d="M244 71L419 -104" stroke-width="8" stroke="url(&quot;#SvgjsLinearGradient1212&quot;)" stroke-linecap="round" class="TopRight"></path><path d="M158 95L378 -125" stroke-width="6" stroke="url(&quot;#SvgjsLinearGradient1212&quot;)" stroke-linecap="round" class="TopRight"></path><path d="M233 299L350 182" stroke-width="10" stroke="url(&quot;#SvgjsLinearGradient1211&quot;)" stroke-linecap="round" class="BottomLeft"></path><path d="M207 177L367 17" stroke-width="8" stroke="url(&quot;#SvgjsLinearGradient1212&quot;)" stroke-linecap="round" class="TopRight"></path><path d="M135 165L302 -2" stroke-width="8" stroke="url(&quot;#SvgjsLinearGradient1211&quot;)" stroke-linecap="round" class="BottomLeft"></path><path d="M474 168L672 -30" stroke-width="6" stroke="url(&quot;#SvgjsLinearGradient1212&quot;)" stroke-linecap="round" class="TopRight"></path><path d="M440 237L575 102" stroke-width="8" stroke="url(&quot;#SvgjsLinearGradient1211&quot;)" stroke-linecap="round" class="BottomLeft"></path><path d="M883 108L1075 -84" stroke-width="6" stroke="url(&quot;#SvgjsLinearGradient1212&quot;)" stroke-linecap="round" class="TopRight"></path><path d="M171 188L81 278" stroke-width="8" stroke="url(&quot;#SvgjsLinearGradient1211&quot;)" stroke-linecap="round" class="BottomLeft"></path><path d="M90 146L-6 242" stroke-width="10" stroke="url(&quot;#SvgjsLinearGradient1211&quot;)" stroke-linecap="round" class="BottomLeft"></path><path d="M141 245L347 39" stroke-width="6" stroke="url(&quot;#SvgjsLinearGradient1212&quot;)" stroke-linecap="round" class="TopRight"></path><path d="M420 22L637 -195" stroke-width="8" stroke="url(&quot;#SvgjsLinearGradient1212&quot;)" stroke-linecap="round" class="TopRight"></path><path d="M756 247L557 446" stroke-width="8" stroke="url(&quot;#SvgjsLinearGradient1212&quot;)" stroke-linecap="round" class="TopRight"></path><path d="M454 103L316 241" stroke-width="10" stroke="url(&quot;#SvgjsLinearGradient1211&quot;)" stroke-linecap="round" class="BottomLeft"></path><path d="M837 194L653 378" stroke-width="8" stroke="url(&quot;#SvgjsLinearGradient1212&quot;)" stroke-linecap="round" class="TopRight"></path></g><defs><mask id="SvgjsMask1210"><rect width="900" height="300" fill="#ffffff"></rect></mask><linearGradient x1="100%" y1="0%" x2="0%" y2="100%" id="SvgjsLinearGradient1211"><stop stop-color="rgba(36, 14, 71, 0)" offset="0"></stop><stop stop-color="rgba(36, 14, 71, 1)" offset="1"></stop></linearGradient><linearGradient x1="0%" y1="100%" x2="100%" y2="0%" id="SvgjsLinearGradient1212"><stop stop-color="rgba(36, 14, 71, 0)" offset="0"></stop><stop stop-color="rgba(36, 14, 71, 1)" offset="1"></stop></linearGradient></defs></svg>